<svg width="100" height="100" viewBox="0 0 100 100" fill="none" xmlns="http://www.w3.org/2000/svg">
<path d="M62.7209 26.4088C59.9862 26.4088 57.7693 28.6257 57.7693 31.3605V33.011H61.0704V31.3605C61.0704 30.449 61.8094 29.7099 62.7209 29.7099C63.6325 29.7099 64.3715 30.449 64.3715 31.3605V33.011H67.6726V31.3605C67.6726 28.6257 65.4557 26.4088 62.7209 26.4088Z" fill="#49B15A"/>
<path d="M79.2264 26.4088C76.4917 26.4088 74.2748 28.6257 74.2748 31.3605V33.011H77.5759V31.3605C77.5759 30.449 78.3149 29.7099 79.2264 29.7099C80.138 29.7099 80.877 30.449 80.877 31.3605V33.011H84.1781V31.3605C84.1781 28.6257 81.9612 26.4088 79.2264 26.4088Z" fill="#49B15A"/>
<path d="M74.2749 37.9626V39.6132C74.2749 41.4364 72.797 42.9143 70.9738 42.9143C69.1505 42.9143 67.6727 41.4364 67.6727 39.6132V37.9626H64.3716V39.6132C64.3716 43.2595 67.3275 46.2154 70.9738 46.2154C74.6201 46.2154 77.576 43.2595 77.576 39.6132V37.9626H74.2749Z" fill="#49B15A"/>
<path d="M87.4792 52.8176H79.2265V51.002C85.1996 48.2931 89.4277 42.7829 90.4981 36.3121H92.4309C95.1656 36.3121 97.3825 34.0952 97.3825 31.3605C97.3825 28.6257 95.1656 26.4088 92.4309 26.4088H90.7803V0H66.0221C57.8217 0.00907803 51.1762 6.65461 51.1671 14.855V26.4088H49.5165C46.7818 26.4088 44.5649 28.6257 44.5649 31.3605C44.5649 34.0952 46.7818 36.3121 49.5165 36.3121H51.4493C52.5197 42.7829 56.7478 48.2931 62.721 51.002V52.8176H54.4682C48.0903 52.8249 42.9216 57.9936 42.9143 64.3715V66.0221H33.011V64.3715C33.011 61.6367 30.7941 59.4199 28.0594 59.4199H21.4572C18.7224 59.4199 16.5055 61.6367 16.5055 64.3715V66.0221H1.65055C0.739034 66.0221 0 66.7611 0 67.6726V97.3825C0 98.2941 0.739034 99.0331 1.65055 99.0331H97.3825C98.2941 99.0331 99.0331 98.2941 99.0331 97.3825V64.3715C99.0259 57.9936 93.8572 52.8249 87.4792 52.8176ZM90.7803 29.7099H92.4309C93.3424 29.7099 94.0814 30.449 94.0814 31.3605C94.0814 32.272 93.3424 33.011 92.4309 33.011H90.7803V29.7099ZM51.1671 33.011H49.5165C48.605 33.011 47.866 32.272 47.866 31.3605C47.866 30.449 48.605 29.7099 49.5165 29.7099H51.1671V33.011ZM84.1781 56.1187L77.3977 65.1605L77.0923 64.8551L73.3076 61.0704L78.2592 56.1187H84.1781ZM73.5915 66.0221L71.9409 67.6726H70.0065L68.3559 66.0221L70.9737 63.4043L73.5915 66.0221ZM68.3559 56.1187H73.5915L70.9737 58.7365L68.3559 56.1187ZM54.4682 14.855C54.4754 8.47703 59.6441 3.30832 66.0221 3.3011H87.4792V13.2044H72.6243V14.855C72.6243 17.5897 70.4074 19.8066 67.6726 19.8066H54.4682V14.855ZM54.4682 33.011V23.1077H67.6726C71.5931 23.1034 74.9711 20.3457 75.7603 16.5055H87.4792V33.011C87.5017 39.8146 83.3231 45.9264 76.9751 48.3744C76.3423 48.6217 75.9256 49.2316 75.9254 49.911V52.8176H66.0221V49.911C66.0219 49.2316 65.6051 48.6217 64.9723 48.3744C58.6243 45.9264 54.4457 39.8146 54.4682 33.011ZM63.6882 56.1187L68.6398 61.0704L64.8551 64.8551L64.5498 65.1605L57.7693 56.1187H63.6882ZM19.8066 64.3715C19.8066 63.46 20.5457 62.721 21.4572 62.721H28.0594C28.9709 62.721 29.7099 63.46 29.7099 64.3715V66.0221H19.8066V64.3715ZM46.2154 95.732H3.3011V84.1781H19.8066V89.1298C19.8066 90.0413 20.5457 90.7803 21.4572 90.7803H28.0594C28.9709 90.7803 29.7099 90.0413 29.7099 89.1298V84.1781H46.2154V95.732ZM23.1077 87.4792V84.1781H26.4088V87.4792H23.1077ZM46.2154 80.877H3.3011V69.3232H46.2154V80.877ZM49.5165 95.732V67.6726C49.5165 66.7611 48.7775 66.0221 47.866 66.0221H46.2154V64.3715C46.2293 60.124 49.4709 56.5836 53.7007 56.1963L63.0511 68.6629C63.3372 69.0473 63.7765 69.2881 64.2543 69.3232H64.3715C64.8093 69.3232 65.229 69.149 65.5384 68.8396L66.0221 68.3559L67.5554 69.8893L64.3946 88.8574C64.3199 89.3027 64.4309 89.7588 64.7016 90.1201L68.9105 95.732H49.5165ZM67.7667 88.7039L70.7212 70.9737H71.2262L74.1807 88.7039L70.9737 92.9805L67.7667 88.7039ZM95.732 95.732H73.0369L77.2458 90.1201C77.5165 89.7588 77.6275 89.3027 77.5528 88.8574L74.392 69.8893L75.9254 68.3559L76.409 68.8396C76.7185 69.149 77.1381 69.3232 77.5759 69.3232H77.6931C78.1709 69.2881 78.6102 69.0473 78.8964 68.6629L88.2467 56.1963C92.4765 56.5836 95.7182 60.124 95.732 64.3715V95.732Z" fill="#49B15A"/>
</svg>
