<svg width="103" height="103" viewBox="0 0 103 103" fill="none" xmlns="http://www.w3.org/2000/svg">
<path d="M87.7084 70.2189C90.6743 67.7971 92.5735 64.1173 92.5735 59.9991C92.5735 52.727 86.6566 46.8101 79.3845 46.8101C72.1125 46.8101 66.1955 52.727 66.1955 59.9991C66.1955 63.9393 67.9414 67.4723 70.6897 69.8908H54.6239C54.515 69.6353 54.426 69.3781 54.3073 69.1226L56.7687 65.0587L55.0063 63.2963H57.9524C60.6793 63.2963 62.8983 61.0773 62.8983 58.3504V55.0532C62.8983 52.3264 60.6793 50.1073 57.9524 50.1073H54.6552C53.7451 50.1073 53.0066 49.3687 53.0066 48.4587V46.8101H69.4928V38.567C69.4928 30.8794 64.6772 24.3113 57.9112 21.6768C60.92 19.5913 62.8983 16.1177 62.8983 12.189C62.8983 5.82695 57.72 0.648621 51.3579 0.648621C44.9959 0.648621 39.8176 5.82695 39.8176 12.189C39.8176 16.1177 41.7959 19.5913 44.8047 21.6768C40.3979 23.393 36.8303 26.776 34.8717 31.0558C32.9131 26.776 29.3455 23.3914 24.9387 21.6768C27.9475 19.5913 29.9258 16.1177 29.9258 12.189C29.9258 5.82695 24.7475 0.648621 18.3855 0.648621C12.0234 0.648621 6.8451 5.82695 6.8451 12.189C6.8451 16.1177 8.82345 19.5913 11.8322 21.6768C5.06624 24.3113 0.25061 30.8794 0.25061 38.567V46.8101H16.7368V48.4587C16.7368 49.3687 15.9983 50.1073 15.0882 50.1073H11.791C9.06415 50.1073 6.8451 52.3264 6.8451 55.0532V58.3504C6.8451 61.0773 9.06415 63.2963 11.791 63.2963H14.7371L12.9747 65.0587L15.4344 69.1226C15.1805 69.6682 14.9514 70.2156 14.7486 70.7629L10.1424 71.8955V84.3723L14.7486 85.5049C14.9514 86.0523 15.1805 86.5996 15.4344 87.1453L12.9747 91.2092L21.7981 100.033L25.862 97.5728C26.406 97.8267 26.955 98.0559 27.5024 98.2587L28.6333 102.863H41.1101L42.2427 98.257C42.79 98.0542 43.3374 97.8251 43.8831 97.5712L47.9469 100.031L56.7704 91.2075L54.3106 87.1437C54.5645 86.5996 54.7937 86.0506 54.9965 85.5033L59.6011 84.3723V81.4312H62.074C63.4374 81.4312 64.5469 82.5407 64.5469 83.9041V102.863H102.465V88.0257C102.465 79.1808 96.0966 71.8065 87.7084 70.2189ZM69.4928 59.9991C69.4928 54.5438 73.9292 50.1073 79.3845 50.1073C84.8398 50.1073 89.2763 54.5438 89.2763 59.9991C89.2763 65.4544 84.8398 69.8908 79.3845 69.8908C73.9292 69.8908 69.4928 65.4544 69.4928 59.9991ZM43.1148 12.189C43.1148 7.64373 46.8127 3.94587 51.3579 3.94587C55.9032 3.94587 59.6011 7.64373 59.6011 12.189C59.6011 16.7342 55.9032 20.4321 51.3579 20.4321C46.8127 20.4321 43.1148 16.7342 43.1148 12.189ZM51.3579 23.7293C59.5401 23.7293 66.1955 30.3848 66.1955 38.567V43.5128H61.2497V30.3238H57.9524V43.5128H44.7634V30.3238H41.4662V43.5128H36.5203V38.567C36.5203 30.3848 43.1758 23.7293 51.3579 23.7293ZM10.1424 12.189C10.1424 7.64373 13.8402 3.94587 18.3855 3.94587C22.9307 3.94587 26.6286 7.64373 26.6286 12.189C26.6286 16.7342 22.9307 20.4321 18.3855 20.4321C13.8402 20.4321 10.1424 16.7342 10.1424 12.189ZM3.54786 38.567C3.54786 30.3848 10.2034 23.7293 18.3855 23.7293C26.5676 23.7293 33.2231 30.3848 33.2231 38.567V43.5128H28.2772V30.3238H24.98V43.5128H11.791V30.3238H8.49373V43.5128H3.54786V38.567ZM11.791 59.9991C10.8809 59.9991 10.1424 59.2605 10.1424 58.3504V55.0532C10.1424 54.1432 10.8809 53.4046 11.791 53.4046H15.0882C17.815 53.4046 20.0341 51.1855 20.0341 48.4587V46.8101H33.2231H36.5203H49.7093V48.4587C49.7093 51.1855 51.9284 53.4046 54.6552 53.4046H57.9524C58.8625 53.4046 59.6011 54.1432 59.6011 55.0532V58.3504C59.6011 59.2605 58.8625 59.9991 57.9524 59.9991H51.7091L47.9469 56.2369L43.8831 58.6967C43.3374 58.4428 42.79 58.2136 42.2427 58.0108L41.1101 53.4046H28.6333L27.5007 58.0108C26.9534 58.2136 26.406 58.4428 25.8603 58.6967L21.7965 56.2369L18.0343 59.9991H11.791ZM56.3038 81.7873L52.4378 82.7385L52.1575 83.6189C51.8575 84.5636 51.4569 85.5214 50.9656 86.4661L50.5386 87.2871L52.6076 90.7063L47.4425 95.8715L44.0232 93.8024L43.2022 94.2294C42.2575 94.7207 41.2997 95.1213 40.3583 95.4197L39.4747 95.6984L38.5251 99.566H31.2184L30.2671 95.7L29.3867 95.4197C28.4421 95.1197 27.4842 94.7191 26.5396 94.2278L25.7185 93.8008L22.2993 95.8698L17.1342 90.7047L19.2032 87.2854L18.7762 86.4644C18.2849 85.5198 17.8843 84.5619 17.5859 83.6205L17.3073 82.7369L13.4396 81.7873V74.4806L17.3089 73.5293L17.5875 72.6457C17.8859 71.7059 18.2866 70.7481 18.7778 69.8018L19.2048 68.9808L17.1358 65.5615L22.3009 60.3964L25.7202 62.4654L26.5412 62.0384C27.4859 61.5471 28.4437 61.1465 29.3851 60.8481L30.2687 60.5695L31.2184 56.7018H38.5251L39.4763 60.5711L40.36 60.8498C41.2997 61.1482 42.2575 61.5488 43.2038 62.0401L44.0249 62.4671L47.4441 60.398L52.6092 65.5632L50.5402 68.9824L50.9672 69.8034C50.9821 69.8331 50.9952 69.8628 51.0101 69.8925H47.1704C44.4288 65.8121 39.8176 63.2963 34.8717 63.2963C26.6896 63.2963 20.0341 69.9518 20.0341 78.1339C20.0341 86.316 26.6896 92.9715 34.8717 92.9715C41.847 92.9715 47.8266 88.1031 49.3384 81.4312H56.3038V81.7873ZM38.8103 81.1047C37.8969 82.3132 36.4626 83.0798 34.8717 83.0798C32.1449 83.0798 29.9258 80.8607 29.9258 78.1339C29.9258 75.4071 32.1449 73.188 34.8717 73.188C35.0547 73.188 35.2311 73.2375 35.4124 73.2589C35.0728 73.9926 34.8717 74.8004 34.8717 75.661C34.8717 78.1982 36.5286 80.3348 38.8103 81.1047ZM38.0535 70.5321C37.0495 70.1134 35.9664 69.8908 34.8717 69.8908C30.3264 69.8908 26.6286 73.5887 26.6286 78.1339C26.6286 82.6792 30.3264 86.377 34.8717 86.377C38.1904 86.377 41.1299 84.3954 42.424 81.4312H45.9274C44.4964 86.2386 40.0401 89.6743 34.8717 89.6743C28.5097 89.6743 23.3313 84.496 23.3313 78.1339C23.3313 71.7719 28.5097 66.5936 34.8717 66.5936C37.9151 66.5936 40.8018 67.8135 42.9351 69.8908H40.6419C39.7071 69.8908 38.835 70.1365 38.0535 70.5321ZM99.168 99.566H94.2221V81.4312H90.9249V99.566H67.8442V83.9041C67.8442 80.7223 65.2558 78.1339 62.074 78.1339H40.6419C39.2785 78.1339 38.1689 77.0244 38.1689 75.661C38.1689 74.2976 39.2785 73.188 40.6419 73.188H84.3304C92.5125 73.188 99.168 79.8435 99.168 88.0257V99.566Z" fill="#49B15A"/>
<path d="M102.465 31.9725C102.465 25.6105 97.2869 20.4321 90.9249 20.4321H84.3304C77.9684 20.4321 72.79 25.6105 72.79 31.9725V43.5129H90.9249C97.2869 43.5129 102.465 38.3345 102.465 31.9725ZM76.0873 31.9725C76.0873 27.4272 79.7851 23.7294 84.3304 23.7294H90.9249C95.4702 23.7294 99.168 27.4272 99.168 31.9725C99.168 36.5177 95.4702 40.2156 90.9249 40.2156H76.0873V31.9725Z" fill="#49B15A"/>
<path d="M79.3845 33.6211H82.6818V36.9183H79.3845V33.6211Z" fill="#49B15A"/>
<path d="M85.979 33.6211H89.2763V36.9183H85.979V33.6211Z" fill="#49B15A"/>
<path d="M92.5735 33.6211H95.8707V36.9183H92.5735V33.6211Z" fill="#49B15A"/>
<path d="M79.3845 27.0266H95.8708V30.3239H79.3845V27.0266Z" fill="#49B15A"/>
</svg>
