<svg width="100" height="100" viewBox="0 0 100 100" fill="none" xmlns="http://www.w3.org/2000/svg">
<path d="M65.9466 23.5736C65.9747 23.4531 66.0209 23.2369 66.0209 23.1081V13.205C66.0209 12.2922 65.2831 11.5545 64.3704 11.5545C63.4576 11.5545 62.7198 12.2922 62.7198 13.205V20.6274C59.0804 17.9997 54.629 16.506 49.8127 16.506C49.7649 16.506 49.7154 16.506 49.6691 16.506C46.0396 16.506 42.628 17.3725 39.6125 18.9471V11.5545C39.6125 10.6417 38.8731 9.90393 37.962 9.90393C37.0509 9.90393 36.3115 10.6417 36.3115 11.5545V21.0714C31.043 25.1498 27.6479 31.7321 27.6941 38.8937C27.7716 51.0399 37.6781 61.0702 49.8078 61.0702C49.8557 61.0702 49.9052 61.0702 49.9514 61.0702C62.1471 61.0702 72.0057 50.8039 71.9265 38.6082C71.8901 32.8314 69.6124 27.4936 65.9466 23.5736ZM49.9299 57.7691C49.8887 57.7691 49.8491 57.7691 49.8078 57.7691C39.4887 57.7691 31.0611 49.2425 30.9951 38.9086C30.9274 28.535 39.3154 19.8071 49.689 19.8071C49.7302 19.8071 49.7698 19.8071 49.8111 19.8071C60.1302 19.8071 68.5577 28.3337 68.6238 38.6676C68.6914 49.0411 60.3051 57.7691 49.9299 57.7691Z" fill="#49B15A"/>
<path d="M37.962 0.000793457C37.051 0.000793457 36.3115 0.738578 36.3115 1.65132V4.95237C36.3115 5.86511 37.051 6.60289 37.962 6.60289C38.8731 6.60289 39.6126 5.86511 39.6126 4.95237V1.65132C39.6126 0.738578 38.8731 0.000793457 37.962 0.000793457Z" fill="#49B15A"/>
<path d="M64.3704 1.65131C63.4576 1.65131 62.7198 2.38909 62.7198 3.30183V6.60288C62.7198 7.51562 63.4576 8.2534 64.3704 8.2534C65.2831 8.2534 66.0209 7.51562 66.0209 6.60288V3.30183C66.0209 2.38909 65.2831 1.65131 64.3704 1.65131Z" fill="#49B15A"/>
<path d="M19.8063 37.9628C18.8952 37.9628 18.1558 38.7006 18.1558 39.6134V52.8175C18.1558 53.7303 18.8952 54.4681 19.8063 54.4681C20.7174 54.4681 21.4568 53.7303 21.4568 52.8175V39.6134C21.4568 38.7006 20.7174 37.9628 19.8063 37.9628Z" fill="#49B15A"/>
<path d="M19.8063 28.0598C18.8952 28.0598 18.1558 28.7975 18.1558 29.7103V33.0113C18.1558 33.9241 18.8952 34.6618 19.8063 34.6618C20.7174 34.6618 21.4568 33.9241 21.4568 33.0113V29.7103C21.4568 28.7975 20.7174 28.0598 19.8063 28.0598Z" fill="#49B15A"/>
<path d="M82.5261 23.1082C81.6134 23.1082 80.8756 23.8459 80.8756 24.7587V37.9629C80.8756 38.8756 81.6134 39.6134 82.5261 39.6134C83.4389 39.6134 84.1767 38.8756 84.1767 37.9629V24.7587C84.1767 23.8459 83.4389 23.1082 82.5261 23.1082Z" fill="#49B15A"/>
<path d="M82.5261 13.205C81.6134 13.205 80.8756 13.9428 80.8756 14.8555V18.1566C80.8756 19.0693 81.6134 19.8071 82.5261 19.8071C83.4389 19.8071 84.1767 19.0693 84.1767 18.1566V14.8555C84.1767 13.9428 83.4389 13.205 82.5261 13.205Z" fill="#49B15A"/>
<path d="M56.0964 42.8402L56.0848 41.1913C56.0765 39.8676 55.555 38.628 54.6125 37.6988C53.6701 36.7712 52.3728 36.2364 51.1019 36.281L47.8008 36.3123C47.7975 36.3123 47.7942 36.3123 47.7909 36.3123C46.8864 36.3123 46.1453 35.568 46.1404 34.6618L46.1305 33.008C46.1255 32.0969 46.86 31.3492 47.7711 31.3443L49.382 31.3327C49.4348 31.336 49.4811 31.3608 49.5372 31.3608C49.5405 31.3608 49.5438 31.3608 49.5471 31.3608C49.6032 31.3608 49.6511 31.3327 49.7055 31.3278L54.3699 31.298C55.2826 31.2914 56.0171 30.5801 56.0105 29.669C56.0039 28.7595 55.2678 28.0597 54.36 28.0597C54.3567 28.0597 54.3534 28.0597 54.3501 28.0597L51.1761 28.0482L51.1662 26.4141C51.1613 25.5064 50.4218 24.7587 49.5157 24.7587C49.5124 24.7587 49.5091 24.7587 49.5058 24.7587C48.5947 24.7653 47.8602 25.5196 47.8652 26.4306L47.8751 28.0597H47.7497C45.0197 28.0597 42.8129 30.3011 42.8294 33.0327L42.8393 34.6882C42.8575 37.4083 45.0758 39.6134 47.7926 39.6134C47.8025 39.6134 47.814 39.6134 47.8239 39.6134H51.125C51.1283 39.6134 51.1316 39.6134 51.1349 39.6134C51.5706 39.6134 51.9816 39.7619 52.2952 40.0673C52.6071 40.3776 52.7821 40.7803 52.7854 41.2226L52.797 42.8666C52.8036 43.7777 52.0674 44.5204 51.1563 44.5253L44.5542 44.5666C43.6431 44.5732 42.9087 45.3159 42.9136 46.227C42.9186 47.1348 43.658 47.866 44.5641 47.866C44.5674 47.866 44.5707 47.866 44.574 47.866L47.8751 47.8446L47.885 49.5281C47.8899 50.4359 48.6294 51.1671 49.5355 51.1671C49.5388 51.1671 49.5421 51.1671 49.5454 51.1671C50.4565 51.1605 51.1926 50.4177 51.186 49.505L51.1761 47.8231C53.9061 47.8049 56.1129 45.5718 56.0964 42.8402Z" fill="#49B15A"/>
<path d="M37.962 41.2639C38.8736 41.2639 39.6126 40.5249 39.6126 39.6134C39.6126 38.7018 38.8736 37.9628 37.962 37.9628C37.0505 37.9628 36.3115 38.7018 36.3115 39.6134C36.3115 40.5249 37.0505 41.2639 37.962 41.2639Z" fill="#49B15A"/>
<path d="M61.0695 41.2639C61.981 41.2639 62.72 40.5249 62.72 39.6134C62.72 38.7018 61.981 37.9628 61.0695 37.9628C60.1579 37.9628 59.4189 38.7018 59.4189 39.6134C59.4189 40.5249 60.1579 41.2639 61.0695 41.2639Z" fill="#49B15A"/>
<path d="M97.3809 64.3713H79.2252C77.0762 64.3713 75.2606 65.7561 74.5773 67.6723H66.3148C65.4218 67.6723 64.7038 68.3837 64.6741 69.27L50.9038 66.1456C49.9102 65.9211 48.8786 65.9987 47.9296 66.3767L35.006 71.5032C33.3373 72.165 32.1142 73.5086 31.6108 75.1327L6.37267 67.7301C4.83438 67.2828 3.22017 67.5683 1.94597 68.5223C0.709725 69.4499 0 70.8562 0 72.3829V75.9629C0 77.6002 0.831864 79.1154 2.22326 80.0149L20.5589 91.8806C20.7207 91.9845 20.9006 92.0605 21.0887 92.1034L48.3884 98.3374C48.7581 98.4232 49.1377 98.4645 49.5157 98.4645C49.8953 98.4645 50.2733 98.4232 50.643 98.3374L65.0108 95.0413C65.3096 95.449 65.7701 95.7312 66.3164 95.7312H74.5789C75.2622 97.6475 77.0778 99.0323 79.2268 99.0323H97.3826C98.2953 99.0323 99.0331 98.2945 99.0331 97.3817V66.0218C99.0314 65.1091 98.2937 64.3713 97.3809 64.3713ZM64.2665 91.8261L49.9036 95.1205C49.6511 95.18 49.382 95.18 49.1262 95.1205L22.1088 88.9509L4.01573 77.2421C3.56843 76.9516 3.30105 76.4746 3.30105 75.9613V72.3813C3.30105 71.7277 3.69057 71.3398 3.9233 71.1665C4.35903 70.8413 4.91031 70.739 5.44178 70.8991L31.6471 78.5955C32.4163 80.8699 34.6164 82.527 37.2028 82.527H49.5157C50.4268 82.527 51.1662 81.7893 51.1662 80.8765C51.1662 79.9638 50.4268 79.226 49.5157 79.226H37.2028C35.8015 79.226 34.661 78.1416 34.661 76.8162C34.661 75.8358 35.275 74.9561 36.2257 74.5781L49.1493 69.4483C49.4761 69.3179 49.8326 69.2898 50.1759 69.3674L64.3638 72.5859L64.2665 91.8261ZM74.2736 92.4302H67.6715V70.9734H74.2736V92.4302ZM95.7304 95.7312H79.2252C78.3141 95.7312 77.5746 94.9918 77.5746 94.0807V69.3228C77.5746 68.4118 78.3141 67.6723 79.2252 67.6723H95.7304V95.7312Z" fill="#49B15A"/>
<path d="M89.4237 89.1292H84.4722C83.5594 89.1292 82.8217 89.8669 82.8217 90.7797C82.8217 91.6924 83.5594 92.4302 84.4722 92.4302H89.4237C90.3365 92.4302 91.0743 91.6924 91.0743 90.7797C91.0743 89.8669 90.3365 89.1292 89.4237 89.1292Z" fill="#49B15A"/>
</svg>
